<svg width="121" height="45" viewBox="0 0 121 45" fill="none" xmlns="http://www.w3.org/2000/svg">
<path d="M0.642046 35V8.81818H8.73864V13.5909H9.01136C9.48864 11.8636 10.267 10.5795 11.3466 9.73864C12.4261 8.88636 13.6818 8.46023 15.1136 8.46023C15.5 8.46023 15.8977 8.48864 16.3068 8.54545C16.7159 8.59091 17.0966 8.66477 17.4489 8.76705V16.0114C17.0511 15.875 16.5284 15.767 15.8807 15.6875C15.2443 15.608 14.6761 15.5682 14.1761 15.5682C13.1875 15.5682 12.2955 15.7898 11.5 16.233C10.7159 16.6648 10.0966 17.2727 9.64205 18.0568C9.19886 18.8295 8.97727 19.7386 8.97727 20.7841V35H0.642046ZM31.7244 35.4943C28.9858 35.4943 26.6222 34.9545 24.6335 33.875C22.6563 32.7841 21.1335 31.233 20.0653 29.2216C19.0085 27.1989 18.4801 24.7955 18.4801 22.0114C18.4801 19.3068 19.0142 16.9432 20.0824 14.9205C21.1506 12.8864 22.6562 11.3068 24.5994 10.1818C26.5426 9.04545 28.8324 8.47727 31.4688 8.47727C33.3324 8.47727 35.0369 8.76705 36.5824 9.34659C38.1278 9.92614 39.4631 10.7841 40.5881 11.9205C41.7131 13.0568 42.5881 14.4602 43.2131 16.1307C43.8381 17.7898 44.1506 19.6932 44.1506 21.8409V23.9205H21.3949V19.0795H36.3949C36.3835 18.1932 36.1733 17.4034 35.7642 16.7102C35.3551 16.017 34.7926 15.4773 34.0767 15.0909C33.3722 14.6932 32.5597 14.4943 31.6392 14.4943C30.7074 14.4943 29.8722 14.7045 29.1335 15.125C28.3949 15.5341 27.8097 16.0966 27.3778 16.8125C26.946 17.517 26.7188 18.3182 26.696 19.2159V24.142C26.696 25.2102 26.9063 26.1477 27.3267 26.9545C27.7472 27.75 28.3438 28.3693 29.1165 28.8125C29.8892 29.2557 30.8097 29.4773 31.8778 29.4773C32.6165 29.4773 33.2869 29.375 33.8892 29.1705C34.4915 28.9659 35.0085 28.6648 35.4403 28.267C35.8722 27.8693 36.196 27.3807 36.4119 26.8011L44.0653 27.0227C43.7472 28.7386 43.0483 30.233 41.9688 31.5057C40.9006 32.767 39.4972 33.75 37.7585 34.4545C36.0199 35.1477 34.0085 35.4943 31.7244 35.4943ZM65.5043 44.8182V30.7557H65.3338C64.9815 31.5625 64.4815 32.3182 63.8338 33.0227C63.1861 33.7273 62.3736 34.2955 61.3963 34.7273C60.4304 35.1591 59.2884 35.375 57.9702 35.375C56.0384 35.375 54.2827 34.875 52.7031 33.875C51.1236 32.875 49.8622 31.375 48.919 29.375C47.9759 27.375 47.5043 24.892 47.5043 21.9261C47.5043 18.8466 47.9929 16.3125 48.9702 14.3239C49.9474 12.3352 51.2259 10.8636 52.8054 9.90909C54.3963 8.95455 56.1065 8.47727 57.9361 8.47727C59.3111 8.47727 60.4872 8.71591 61.4645 9.19318C62.4418 9.65909 63.2486 10.2614 63.8849 11C64.5213 11.7386 65.0043 12.5057 65.3338 13.3011H65.5895V8.81818H73.8395V44.8182H65.5043ZM60.8679 28.8807C61.8793 28.8807 62.7429 28.5966 63.4588 28.0284C64.1747 27.4489 64.7259 26.6364 65.1122 25.5909C65.4986 24.5455 65.6918 23.3182 65.6918 21.9091C65.6918 20.4773 65.4986 19.2443 65.1122 18.2102C64.7372 17.1761 64.1861 16.3807 63.4588 15.8239C62.7429 15.267 61.8793 14.9886 60.8679 14.9886C59.8338 14.9886 58.9588 15.2727 58.2429 15.8409C57.527 16.4091 56.9815 17.2102 56.6065 18.2443C56.2429 19.2784 56.0611 20.5 56.0611 21.9091C56.0611 23.3182 56.2486 24.5455 56.6236 25.5909C56.9986 26.6364 57.5384 27.4489 58.2429 28.0284C58.9588 28.5966 59.8338 28.8807 60.8679 28.8807Z" fill="#A219F0"/>
<path d="M98.6688 21.896L94.4448 10.352C94.2368 9.84 94.0208 9.232 93.7968 8.528C93.5728 7.824 93.3488 7.064 93.1248 6.248C92.9168 7.064 92.7008 7.832 92.4768 8.552C92.2528 9.256 92.0368 9.872 91.8288 10.4L87.6288 21.896H98.6688ZM110.069 35H105.077C104.517 35 104.061 34.864 103.709 34.592C103.357 34.304 103.093 33.952 102.917 33.536L100.325 26.456H85.9488L83.3568 33.536C83.2288 33.904 82.9808 34.24 82.6128 34.544C82.2448 34.848 81.7888 35 81.2448 35H76.2047L89.8608 0.295998H96.4368L110.069 35ZM120.141 35H113.661V0.295998H120.141V35Z" fill="black"/>
</svg>
